# xmcd
#
# Track frame offsets: 
#        150
#        22340
#        37940
#        71985
#        100340
#        113690
#        139725
#        151790
#        172940
#        185090
#        201595
#        206240
#        218845
#        227390
#        241645
#        263840
#        284245
#        296920
#        326685
#
# Disc length: 4564 seconds
#
# Revision: 0
# Processed by: cddbd v1.5.1PL0 Copyright (c) Steve Scherf et al.
# Submitted via: ExactAudioCopy v0.95b2
#
DISCID=2a11d213
DTITLE=Sir Douglas Quintet (Doug Sahm) - Zurich, 31 May 1985, 1
DYEAR=1900
DGENRE=
TTITLE0=Texas Tornado
TTITLE1=Crying My Heart Out
TTITLE2=Natural Ball (That Ain't Right)
TTITLE3=Things That I Used To Do
TTITLE4=Walking Blues
TTITLE5=Crossroads
TTITLE6=I'll Never Fall In Love Again
TTITLE7=Before Daylight
TTITLE8=Suzie Darling
TTITLE9=Be Real
TTITLE10=(Intro)
TTITLE11=Qué Pasó
TTITLE12=Happy Birthday To Augie
TTITLE13=Chicano She's About A Mover
TTITLE14=She's About A Mover
TTITLE15=Folsom Prison Blues
TTITLE16=I Know, You Know
TTITLE17=Orange Blossom Special
TTITLE18=Heartaches By The Number
EXTD=
EXTT0=
EXTT1=
EXTT2=
EXTT3=
EXTT4=
EXTT5=
EXTT6=
EXTT7=
EXTT8=
EXTT9=
EXTT10=
EXTT11=
EXTT12=
EXTT13=
EXTT14=
EXTT15=
EXTT16=
EXTT17=
EXTT18=
PLAYORDER=
